<?xml version="1.0" encoding="iso-8859-1"?>
<!-- Generator: Adobe Illustrator 22.0.0, SVG Export Plug-In . SVG Version: 6.00 Build 0)  -->
<svg version="1.1" id="&#x56FE;&#x5C42;_1" xmlns="http://www.w3.org/2000/svg" xmlns:xlink="http://www.w3.org/1999/xlink" x="0px"
	 y="0px" viewBox="0 0 362.213 104.162" style="enable-background:new 0 0 362.213 104.162;" xml:space="preserve">
<g>
	<g>
		<polygon style="fill:#EA5504;" points="33.902,58.666 48.993,67.378 48.993,49.953 33.902,41.241 		"/>
		<path style="fill:#EA5504;" d="M88.963,23.087L53.582,2.66c-1.805-1.042-4.758-1.042-6.563,0L11.638,23.087
			c-2.031,1.172-3.282,3.339-3.282,5.684l0,40.854c0,2.345,1.251,4.511,3.281,5.684l31.589,18.238v8.166l45.736-26.404
			c2.031-1.172,3.282-3.339,3.282-5.684l0-40.854C92.244,26.426,90.993,24.26,88.963,23.087z M74.808,63.348L50.299,77.497
			L25.793,63.348l0-28.299L50.3,20.9l24.507,14.149L74.808,63.348z"/>
	</g>
	<path style="fill:#3E3A39;" d="M218.444,46.833h0.007l-0.007-0.001L218.444,46.833z M247.99,49.096l5.153,33.039h8.745
		l-5.153-33.039H247.99z M327.567,37.169v44.965h27.956V37.169H327.567z M346.883,73.616h-10.675V45.81h10.675V73.616z
		 M212.939,82.135h8.745l5.153-33.039h-8.745L212.939,82.135z M256.382,46.833l0-0.001l-0.007,0.001H256.382z M183.568,82.057
		l-12.746-12.994h8.943v-8.64h-32.799v-3.042h32.871V21.978h-74.949v35.403h33.438v3.042h-32.799v8.64h8.685l-12.864,13.052
		l0.019,0.019h12.093l12.883-13.071h11.984v13.071h8.64V69.064h11.755l12.821,13.071h39.981V21.978h-27.956V82.057z M146.967,30.618
		h24.23v4.741h-24.23V30.618z M146.967,44h24.23v4.741h-24.23V44z M138.327,48.741h-24.798V44h24.798V48.741z M138.327,35.359
		h-24.798v-4.741h24.798V35.359z M192.209,30.618h10.675v42.997h-10.675V30.618z M261.212,37.169H241.56v-5.299h19.651v-8.64H241.56
		v-2.342h-8.64v2.342h-19.651v8.64h19.651v5.299h-19.651v8.64h19.651v36.325h8.64V45.81h19.651V37.169z M300.227,82.135h8.64V45.81
		h16.203v-8.64h-24.844V82.135z M263.596,82.135h8.64V64.176h26.03V23.23h-34.671V82.135z M272.236,31.871h17.39v23.665h-17.39
		V31.871z"/>
</g>
</svg>
