<?xml version="1.0" encoding="iso-8859-1"?>
<!-- Generator: Adobe Illustrator 22.0.0, SVG Export Plug-In . SVG Version: 6.00 Build 0)  -->
<svg version="1.1" id="&#x56FE;&#x5C42;_1" xmlns="http://www.w3.org/2000/svg" xmlns:xlink="http://www.w3.org/1999/xlink" x="0px"
	 y="0px" viewBox="0 0 32.54 32.57" style="enable-background:new 0 0 32.54 32.57;" xml:space="preserve">
<path style="fill:#4EA6DB;" d="M16.255,31.362c-8.332,0-15.087-6.755-15.087-15.087c0-8.332,6.755-15.087,15.087-15.087
	c8.332,0,15.087,6.755,15.087,15.087C31.342,24.608,24.587,31.362,16.255,31.362L16.255,31.362z M21.598,14.704
	c-0.127-0.59-0.314-0.943-0.314-0.943s0.008-0.864-0.943-2.829c-0.951-1.965-3.772-2.2-3.772-2.2h-0.314c0,0-2.821,0.236-3.772,2.2
	c-0.951,1.964-0.943,2.829-0.943,2.829s-0.187,0.353-0.314,0.943c-0.127,0.59,0,0.943,0,0.943s-1.611,1.643-1.572,2.829
	c0.04,1.186,0.331,1.941,0.943,1.257c0.612-0.684,0.629-0.629,0.629-0.629s-0.011,0.511,0.314,0.943
	c0.325,0.432,0.629,0.629,0.629,0.629s-1.649,0.816-1.257,1.886c0.391,1.07,1.597,1.266,2.514,1.257
	c0.917-0.008,2.829-0.629,2.829-0.629h0.314c0,0,1.912,0.62,2.829,0.629c0.917,0.009,2.123-0.188,2.514-1.257
	c0.391-1.07-1.257-1.886-1.257-1.886s0.304-0.196,0.629-0.629c0.325-0.432,0.314-0.943,0.314-0.943s0.016-0.055,0.629,0.629
	c0.612,0.684,0.903-0.071,0.943-1.257c0.04-1.186-1.571-2.829-1.571-2.829S21.725,15.294,21.598,14.704L21.598,14.704z
	 M21.598,14.704"/>
<rect x="0.005" style="fill:none;" width="32.535" height="32.57"/>
</svg>
