<?xml version="1.0" encoding="iso-8859-1"?>
<!-- Generator: Adobe Illustrator 22.0.0, SVG Export Plug-In . SVG Version: 6.00 Build 0)  -->
<svg version="1.1" id="&#x56FE;&#x5C42;_1" xmlns="http://www.w3.org/2000/svg" xmlns:xlink="http://www.w3.org/1999/xlink" x="0px"
	 y="0px" viewBox="0 0 32.634 32.634" style="enable-background:new 0 0 32.634 32.634;" xml:space="preserve">
<g>
	<path style="fill:#68CD1B;" d="M18.35,16.305c-0.351,0-0.702,0.326-0.702,0.728c0,0.326,0.351,0.652,0.702,0.652
		c0.527,0,0.903-0.326,0.903-0.652C19.253,16.631,18.877,16.305,18.35,16.305L18.35,16.305z M16.041,12.917
		c0.552,0,0.903-0.351,0.903-0.878c0-0.552-0.351-0.878-0.903-0.878c-0.527,0-1.029,0.326-1.029,0.878
		C15.012,12.566,15.514,12.917,16.041,12.917L16.041,12.917z M16.317,0.917c-8.506,0-15.401,6.895-15.401,15.401
		c0,8.505,6.895,15.4,15.401,15.4c8.505,0,15.4-6.895,15.4-15.4C31.718,7.812,24.823,0.917,16.317,0.917L16.317,0.917z
		 M13.407,20.219c-0.928,0-1.606-0.15-2.484-0.402l-2.534,1.28l0.728-2.158c-1.782-1.254-2.835-2.835-2.835-4.767
		c0-3.412,3.212-6.022,7.126-6.022c3.463,0,6.549,2.058,7.151,4.968c-0.251-0.05-0.477-0.075-0.677-0.075
		c-3.413,0-6.047,2.559-6.047,5.646c0,0.527,0.075,1.004,0.201,1.506C13.833,20.219,13.607,20.219,13.407,20.219L13.407,20.219z
		 M23.87,22.678l0.502,1.807l-1.907-1.079c-0.728,0.15-1.43,0.376-2.158,0.376c-3.362,0-6.022-2.308-6.022-5.169
		c0-2.861,2.66-5.169,6.022-5.169c3.187,0,6.047,2.308,6.047,5.169C26.354,20.219,25.275,21.649,23.87,22.678L23.87,22.678z
		 M11.073,11.161c-0.527,0-1.079,0.326-1.079,0.878c0,0.527,0.552,0.878,1.079,0.878c0.502,0,0.903-0.351,0.903-0.878
		C11.976,11.487,11.575,11.161,11.073,11.161L11.073,11.161z M22.289,16.305c-0.376,0-0.703,0.326-0.703,0.728
		c0,0.326,0.326,0.652,0.703,0.652c0.502,0,0.878-0.326,0.878-0.652C23.167,16.631,22.791,16.305,22.289,16.305L22.289,16.305z
		 M22.289,16.305"/>
</g>
</svg>
