<?xml version="1.0" encoding="iso-8859-1"?>
<!-- Generator: Adobe Illustrator 22.0.0, SVG Export Plug-In . SVG Version: 6.00 Build 0)  -->
<svg version="1.1" id="&#x56FE;&#x5C42;_1" xmlns="http://www.w3.org/2000/svg" xmlns:xlink="http://www.w3.org/1999/xlink" x="0px"
	 y="0px" viewBox="0 0 31.79 31.819" style="enable-background:new 0 0 31.79 31.819;" xml:space="preserve">
<path style="fill:#EA5D5C;" d="M13.989,15.01c-2.893,0.139-5.231,1.697-5.231,3.645c0,1.947,2.337,3.422,5.231,3.283
	c2.894-0.139,5.231-1.975,5.231-3.923C19.192,16.095,16.854,14.871,13.989,15.01L13.989,15.01z M15.936,19.935
	c-0.89,1.168-2.643,1.725-4.34,0.779c-0.807-0.445-0.779-1.308-0.779-1.308s-0.334-2.754,2.56-3.088
	C16.298,15.956,16.827,18.766,15.936,19.935L15.936,19.935z M15.936,19.935"/>
<g>
	<defs>
		<rect id="SVGID_1_" x="0.544" y="0.501" width="30.785" height="30.818"/>
	</defs>
	<clipPath id="SVGID_2_">
		<use xlink:href="#SVGID_1_"  style="overflow:visible;"/>
	</clipPath>
	<path style="clip-path:url(#SVGID_2_);fill:#EA5D5C;" d="M14.018,18.082c-0.196,0.14-0.224,0.391-0.112,0.559
		c0.084,0.168,0.336,0.196,0.503,0.056c0.168-0.14,0.252-0.391,0.14-0.559C14.466,17.97,14.242,17.942,14.018,18.082L14.018,18.082z
		 M12.648,18.473c-0.559,0.056-0.923,0.531-0.923,1.007c0,0.447,0.447,0.783,0.979,0.727c0.531-0.056,0.979-0.475,0.979-0.951
		C13.683,18.781,13.263,18.417,12.648,18.473L12.648,18.473z M12.648,18.473"/>
	<path style="clip-path:url(#SVGID_2_);fill:#EA5D5C;" d="M15.92,0.52c-8.501,0-15.381,6.879-15.381,15.381
		c0,8.501,6.879,15.38,15.381,15.38c8.501,0,15.38-6.879,15.38-15.38C31.3,7.399,24.421,0.52,15.92,0.52L15.92,0.52z M21.848,19.34
		c-1.202,2.573-5.145,3.831-8.054,3.607c-2.768-0.224-6.348-1.146-6.711-4.558c0,0-0.196-1.538,1.286-3.523
		c0,0,2.125-2.992,4.586-3.859c2.489-0.839,2.768,0.587,2.768,1.454c-0.14,0.727-0.363,1.146,0.559,0.867c0,0,2.433-1.147,3.44-0.14
		c0.811,0.811,0.14,1.957,0.14,1.957s-0.336,0.363,0.364,0.503C20.87,15.761,23.051,16.767,21.848,19.34L21.848,19.34z
		 M19.443,12.237c-0.252,0-0.476-0.224-0.476-0.475c0-0.28,0.224-0.475,0.476-0.475c0,0,2.992-0.559,2.629,2.685v0.056
		c-0.028,0.224-0.224,0.42-0.475,0.42c-0.28,0-0.475-0.224-0.475-0.475C21.121,13.915,21.597,11.762,19.443,12.237L19.443,12.237z
		 M24.505,15.341c-0.084,0.559-0.363,0.335-0.671,0.335c-0.392,0-0.699-0.503-0.699-0.895c0-0.336,0.14-0.671,0.14-0.671
		c0.028-0.14,0.363-1.035-0.224-2.349c-1.063-1.818-3.188-1.818-3.44-1.734c-0.252,0.112-0.643,0.168-0.643,0.168
		c-0.391,0-0.699-0.308-0.699-0.699c0-0.336,0.224-0.587,0.503-0.671c0,0,0,0.028,0.028,0.028c0.028,0,0.056,0.028,0.056,0.028
		c0.308-0.056,1.37-0.14,2.377,0.112C23.107,9.441,25.623,11.51,24.505,15.341L24.505,15.341z M24.505,15.341"/>
</g>
</svg>
